<!-- Generated by IcoMoon.io -->
<svg version="1.1" xmlns="http://www.w3.org/2000/svg" width="572" height="512" viewBox="0 0 572 512">
<title></title>
<g id="icomoon-ignore">
</g>
<path d="M378.72 169.328l-15.84 32.304c15.152 12.992 24.752 32.272 24.752 53.776 0 23.712-5.376 45.152-23.248 58.016l15.312 27.312c23.376-20.976 38.096-51.408 38.096-85.296-0.016-34.32-15.136-65.136-39.072-86.112zM496.288 56.208l-22.288 27.040c41.568 45.376 67.872 105.84 67.872 172.224 0 66.272-26.256 126.656-67.68 172.016l22.256 27.6c47.408-53.376 76.128-122.368 76.128-199.616-0.016-77.040-29.104-145.92-76.288-199.264zM437.152 111.456l-19.84 28.528c29.472 29.6 48.16 70.4 48.16 115.472 0 45.984-19.44 87.504-49.968 117.264l20.624 27.376c36.88-37.664 59.088-87.744 59.088-144.624 0-55.824-22.368-106.528-58.064-144.016zM0 192.112v129.44c0 16.496 14.336 37.664 32 37.664h96.432v-207.024h-96.432c-17.664 0-32 23.44-32 39.92zM277.456 57.904l-134.096 92.432v212l134.096 93.44c17.664 0 43.008-13.376 43.008-29.872v-338.128c0-16.496-25.344-29.872-43.008-29.872z"></path>
</svg>
